<?xml version="1.0" standalone="no"?><!DOCTYPE svg PUBLIC "-//W3C//DTD SVG 1.1//EN" "http://www.w3.org/Graphics/SVG/1.1/DTD/svg11.dtd"><svg t="1624181937226" class="icon" viewBox="0 0 1024 1024" version="1.1" xmlns="http://www.w3.org/2000/svg" p-id="2568" xmlns:xlink="http://www.w3.org/1999/xlink" width="200" height="200"><defs><style type="text/css"></style></defs><path d="M768 896v-320h64v320h128v64H96a32 32 0 0 1-32-32V64h64v832h128v-192h64v192h192v-256h64v256h192zM470.72 363.888l-233.476 233.372L192 551.996l256.116-256.012a32 32 0 0 1 45.252 0.012l0.008 0.004 105.256 105.36L831.992 168l45.256 45.256-256 256.02a32 32 0 0 1-45.252 0l-0.012-0.012-105.264-105.376z" fill="#000000" p-id="2569"></path></svg>